<svg width="14" height="14" viewBox="0 0 14 14" fill="none" xmlns="http://www.w3.org/2000/svg">
<path d="M6.14585 7.85404L9.41504 4.58481M12.7593 2.58966L9.99973 11.5582C9.75243 12.362 9.62869 12.764 9.41539 12.8973C9.23038 13.0129 9.00132 13.0322 8.79982 12.9486C8.56748 12.8522 8.37891 12.4757 8.00272 11.7233L6.25488 8.2276C6.19518 8.1082 6.16531 8.04875 6.12543 7.99702C6.09004 7.95111 6.04921 7.90976 6.0033 7.87437C5.95275 7.8354 5.89429 7.80618 5.78023 7.74915L2.27649 5.99726C1.52411 5.62107 1.14789 5.4328 1.05148 5.20045C0.967876 4.99895 0.986943 4.76968 1.10254 4.58466C1.23583 4.37133 1.63786 4.2474 2.44184 4.00001L11.4103 1.24046C12.0424 1.04598 12.3585 0.94881 12.572 1.02719C12.758 1.09546 12.9046 1.24192 12.9728 1.42789C13.0512 1.64128 12.9539 1.95729 12.7597 2.58873L12.7593 2.58966Z" stroke="#666B77" stroke-linecap="round" stroke-linejoin="round"/>
</svg>
