<svg width="22" height="22" viewBox="0 0 22 22" fill="none" xmlns="http://www.w3.org/2000/svg">
<path d="M1 11H6.55556M1 11C1 16.5228 5.47715 21 11 21M1 11C1 5.47715 5.47715 1 11 1M6.55556 11H15.4444M6.55556 11C6.55556 16.5228 8.5454 21 11 21M6.55556 11C6.55556 5.47715 8.5454 1 11 1M15.4444 11H21M15.4444 11C15.4444 5.47715 13.4546 1 11 1M15.4444 11C15.4444 16.5228 13.4546 21 11 21M21 11C21 5.47715 16.5228 1 11 1M21 11C21 16.5228 16.5228 21 11 21" stroke="#666B77" stroke-linecap="round" stroke-linejoin="round"/>
</svg>
