<svg width="113" height="43" viewBox="0 0 113 43" fill="none" xmlns="http://www.w3.org/2000/svg">
<path d="M11.8203 42.56C9.61765 42.56 7.80698 42.4107 6.38831 42.112C4.96965 41.8507 3.83098 41.4587 2.97231 40.936C2.15098 40.376 1.57231 39.6853 1.23631 38.864C0.937646 38.0427 0.788312 37.072 0.788312 35.952C0.788312 35.616 0.806979 35.1493 0.844312 34.552C0.881645 33.9173 0.937646 33.04 1.01231 31.92C1.08698 30.8 1.18031 29.3627 1.29231 27.608C1.44165 25.816 1.62831 23.576 1.85231 20.888C2.11365 17.5653 2.31898 14.9333 2.46831 12.992C2.61765 11.0507 2.72965 9.55733 2.80431 8.512C2.87898 7.42933 2.91631 6.68267 2.91631 6.272C2.95365 5.824 2.97231 5.45066 2.97231 5.152C2.97231 4.55466 2.97231 4.06933 2.97231 3.696C3.00965 3.32267 3.04698 3.04267 3.08431 2.856C3.15898 2.632 3.25231 2.48266 3.36431 2.408C3.51365 2.296 3.71898 2.24 3.98031 2.24C6.18298 2.09066 8.04965 1.97866 9.58031 1.904C11.1483 1.82933 12.511 1.792 13.6683 1.792C16.5056 1.792 18.9323 2.03466 20.9483 2.52C23.0016 2.968 24.663 3.62133 25.9323 4.48C27.2016 5.33867 28.135 6.40267 28.7323 7.672C29.3296 8.94133 29.6283 10.3787 29.6283 11.984C29.6283 12.88 29.535 13.8133 29.3483 14.784C29.1616 15.7173 28.8443 16.6133 28.3963 17.472C27.9483 18.3307 27.3323 19.096 26.5483 19.768C25.8016 20.4027 24.8496 20.8693 23.6923 21.168C25.8576 21.84 27.3883 22.96 28.2843 24.528C29.1803 26.0587 29.6283 27.888 29.6283 30.016C29.6283 31.7333 29.3483 33.3573 28.7883 34.888C28.2283 36.3813 27.2576 37.7067 25.8763 38.864C24.495 39.984 22.6656 40.88 20.3883 41.552C18.111 42.224 15.255 42.56 11.8203 42.56ZM15.0123 25.2C14.6016 25.2 14.0976 25.2373 13.5003 25.312C12.903 25.3493 12.287 25.424 11.6523 25.536L11.0363 34.664C12.3803 35.0747 13.5936 35.28 14.6763 35.28C15.8336 35.28 16.767 35.112 17.4763 34.776C18.1856 34.44 18.727 34.0293 19.1003 33.544C19.511 33.0213 19.7723 32.4613 19.8843 31.864C20.0336 31.2293 20.1083 30.6507 20.1083 30.128C20.1083 28.7467 19.7163 27.5893 18.9323 26.656C18.1856 25.6853 16.879 25.2 15.0123 25.2ZM12.6603 9.8C12.5856 10.7707 12.511 11.9093 12.4363 13.216C12.399 14.5227 12.3243 15.9413 12.2123 17.472C13.407 17.7707 14.471 17.92 15.4043 17.92C16.5243 17.92 17.4203 17.7893 18.0923 17.528C18.7643 17.2667 19.287 16.9307 19.6603 16.52C20.071 16.1093 20.3323 15.6613 20.4443 15.176C20.5936 14.6907 20.6683 14.224 20.6683 13.776C20.6683 12.6187 20.2763 11.6293 19.4923 10.808C18.7456 9.94933 17.439 9.52 15.5723 9.52C15.1616 9.52 14.695 9.55733 14.1723 9.632C13.687 9.66933 13.183 9.72533 12.6603 9.8ZM46.2706 42.56C43.6946 42.56 41.5479 42.2053 39.8306 41.496C38.1506 40.7493 36.8066 39.7413 35.7986 38.472C34.7906 37.2027 34.0812 35.728 33.6706 34.048C33.2599 32.3307 33.0546 30.5013 33.0546 28.56C33.0546 26.32 33.3159 24.136 33.8386 22.008C34.3986 19.8427 35.3319 17.92 36.6386 16.24C37.9452 14.56 39.6626 13.216 41.7906 12.208C43.9559 11.1627 46.6439 10.64 49.8546 10.64C54.5586 10.64 57.9186 11.7973 59.9346 14.112C61.9879 16.3893 63.0146 19.6 63.0146 23.744C63.0146 24.9013 62.9212 26.1893 62.7346 27.608C62.5852 28.9893 62.2679 30.3707 61.7826 31.752C61.3346 33.1333 60.6999 34.4773 59.8786 35.784C59.0946 37.0907 58.0866 38.248 56.8546 39.256C55.6226 40.264 54.1292 41.0667 52.3746 41.664C50.6572 42.2613 48.6226 42.56 46.2706 42.56ZM48.9026 18.088C47.4839 18.088 46.3452 18.4613 45.4866 19.208C44.6652 19.9173 44.0306 20.7947 43.5826 21.84C43.1719 22.848 42.8919 23.9307 42.7426 25.088C42.6306 26.208 42.5746 27.16 42.5746 27.944C42.5746 30.408 42.9666 32.2187 43.7506 33.376C44.5346 34.5333 45.6546 35.112 47.1106 35.112C48.4172 35.112 49.4812 34.7013 50.3026 33.88C51.1612 33.0587 51.8146 32.0693 52.2626 30.912C52.7479 29.7547 53.0652 28.5413 53.2146 27.272C53.4012 26.0027 53.4946 24.9387 53.4946 24.08C53.4946 22.2133 53.1399 20.7573 52.4306 19.712C51.7586 18.6293 50.5826 18.088 48.9026 18.088ZM79.3313 42.56C76.7553 42.56 74.6086 42.2053 72.8913 41.496C71.2113 40.7493 69.8673 39.7413 68.8593 38.472C67.8513 37.2027 67.142 35.728 66.7313 34.048C66.3206 32.3307 66.1153 30.5013 66.1153 28.56C66.1153 26.32 66.3766 24.136 66.8993 22.008C67.4593 19.8427 68.3926 17.92 69.6993 16.24C71.006 14.56 72.7233 13.216 74.8513 12.208C77.0166 11.1627 79.7046 10.64 82.9153 10.64C87.6193 10.64 90.9793 11.7973 92.9953 14.112C95.0486 16.3893 96.0753 19.6 96.0753 23.744C96.0753 24.9013 95.982 26.1893 95.7953 27.608C95.646 28.9893 95.3286 30.3707 94.8433 31.752C94.3953 33.1333 93.7606 34.4773 92.9393 35.784C92.1553 37.0907 91.1473 38.248 89.9153 39.256C88.6833 40.264 87.19 41.0667 85.4353 41.664C83.718 42.2613 81.6833 42.56 79.3313 42.56ZM81.9633 18.088C80.5446 18.088 79.406 18.4613 78.5473 19.208C77.726 19.9173 77.0913 20.7947 76.6433 21.84C76.2326 22.848 75.9526 23.9307 75.8033 25.088C75.6913 26.208 75.6353 27.16 75.6353 27.944C75.6353 30.408 76.0273 32.2187 76.8113 33.376C77.5953 34.5333 78.7153 35.112 80.1713 35.112C81.478 35.112 82.542 34.7013 83.3633 33.88C84.222 33.0587 84.8753 32.0693 85.3233 30.912C85.8086 29.7547 86.126 28.5413 86.2753 27.272C86.462 26.0027 86.5553 24.9387 86.5553 24.08C86.5553 22.2133 86.2006 20.7573 85.4913 19.712C84.8193 18.6293 83.6433 18.088 81.9633 18.088ZM104.664 32.032C106.232 32.032 107.352 32.424 108.024 33.208C108.696 33.9547 109.032 35.0187 109.032 36.4C109.032 36.9973 108.957 37.6507 108.808 38.36C108.659 39.0693 108.379 39.7413 107.968 40.376C107.595 40.9733 107.035 41.496 106.288 41.944C105.579 42.3547 104.645 42.56 103.488 42.56C101.808 42.56 100.669 42.1307 100.072 41.272C99.4747 40.376 99.1761 39.2747 99.1761 37.968C99.1761 37.2213 99.2694 36.4933 99.4561 35.784C99.6427 35.0747 99.9414 34.44 100.352 33.88C100.763 33.32 101.323 32.872 102.032 32.536C102.741 32.2 103.619 32.032 104.664 32.032ZM105.896 28.112C104.963 28.112 104.197 28 103.6 27.776C103.003 27.552 102.536 27.216 102.2 26.768C101.864 26.2827 101.621 25.704 101.472 25.032C101.36 24.3227 101.304 23.52 101.304 22.624C101.304 22.288 101.304 21.9333 101.304 21.56C101.341 21.1493 101.379 20.6453 101.416 20.048C101.491 19.4507 101.547 18.704 101.584 17.808C101.659 16.912 101.752 15.7733 101.864 14.392C101.976 12.9733 102.107 11.2747 102.256 9.296C102.405 7.31733 102.573 4.94667 102.76 2.184C102.797 1.36266 102.891 0.877331 103.04 0.727997C103.152 0.615999 103.451 0.559999 103.936 0.559999H107.24C109.293 0.559999 110.749 0.970665 111.608 1.792C112.504 2.576 112.952 3.50933 112.952 4.592C112.952 5.264 112.877 6.16 112.728 7.28C112.616 8.36267 112.448 9.576 112.224 10.92C112 12.264 111.739 13.6827 111.44 15.176C111.179 16.632 110.899 18.088 110.6 19.544C110.339 20.9627 110.077 22.3253 109.816 23.632C109.555 24.9387 109.331 26.0587 109.144 26.992C109.069 27.44 108.939 27.7387 108.752 27.888C108.603 28.0373 108.323 28.112 107.912 28.112H105.896Z" fill="white"/>
</svg>
